<svg width="24" height="18" viewBox="0 0 24 18" fill="none" xmlns="http://www.w3.org/2000/svg">
<mask id="path-1-inside-1" fill="white">
<path d="M10.0438 4.02998L4.5 4.6035V2.62505C4.5 2.00372 3.99633 1.50005 3.375 1.50005H1.125C0.503672 1.50005 0 2.00372 0 2.62505V15.375C0 15.9964 0.503672 16.5 1.125 16.5H3.375C3.99633 16.5 4.5 15.9964 4.5 15.375V13.3966L10.0438 13.9701C11.1009 16.2439 12.9966 18 15.375 18C15.9963 18 16.5 17.4964 16.5 16.875V10.5H21.3753C21.4335 10.5 21.491 10.4865 21.543 10.4604L23.793 9.33544C24.0688 9.19758 24.0693 8.80275 23.793 8.66461L21.543 7.53961C21.491 7.51358 21.4335 7.50002 21.3753 7.5H16.5V1.125C16.5 0.503672 15.9963 0 15.375 0C12.9758 4.6875e-05 11.0897 1.78045 10.0438 4.02998Z"/>
</mask>
<path d="M10.0438 4.02998L4.5 4.6035V2.62505C4.5 2.00372 3.99633 1.50005 3.375 1.50005H1.125C0.503672 1.50005 0 2.00372 0 2.62505V15.375C0 15.9964 0.503672 16.5 1.125 16.5H3.375C3.99633 16.5 4.5 15.9964 4.5 15.375V13.3966L10.0438 13.9701C11.1009 16.2439 12.9966 18 15.375 18C15.9963 18 16.5 17.4964 16.5 16.875V10.5H21.3753C21.4335 10.5 21.491 10.4865 21.543 10.4604L23.793 9.33544C24.0688 9.19758 24.0693 8.80275 23.793 8.66461L21.543 7.53961C21.491 7.51358 21.4335 7.50002 21.3753 7.5H16.5V1.125C16.5 0.503672 15.9963 0 15.375 0C12.9758 4.6875e-05 11.0897 1.78045 10.0438 4.02998Z" stroke="black" stroke-width="6" mask="url(#path-1-inside-1)"/>
</svg>
