<svg width="1152" height="509" viewBox="0 0 1152 509" fill="none" xmlns="http://www.w3.org/2000/svg">
<path d="M-86 508.221H576H1238L1217.48 471.389C1192.3 426.186 1192.19 371.197 1217.2 325.897L1229.32 303.939C1235.01 293.628 1238 282.044 1238 270.267V227.868C1238 139.697 1038.32 57.8703 1038.32 57.8703L999.892 37.3293C932.216 1.15845 853.253 -7.7046 779.243 12.563L651.992 47.4106C602.175 61.0528 549.68 61.6021 499.589 49.0054L344.606 10.0306C279.735 -6.28292 211.273 -0.448257 150.098 26.6074L133.291 34.0404C82.3308 56.5786 22.5147 61.3401 -23.602 92.6166C-61.2572 118.154 -86 161.302 -86 210.228V270.267C-86 282.044 -83.0148 293.629 -77.3233 303.939L-65.2013 325.897C-40.1944 371.197 -40.3004 426.186 -65.4818 471.389L-86 508.221Z" fill="#FFD584"/>
</svg>
